{
    "asset" : {
        "generator" : "Khronos glTF Blender I/O v1.5.17",
        "version" : "2.0"
    },
    "extensionsUsed" : [
        "KHR_materials_clearcoat"
    ],
    "scene" : 0,
    "scenes" : [
        {
            "name" : "Scene",
            "nodes" : [
                0,
                1
            ]
        }
    ],
    "nodes" : [
        {
            "mesh" : 0,
            "name" : "Cube"
        },
        {
            "name" : "Sun",
            "rotation" : [
                0.3535534143447876,
                -0.14644663035869598,
                -0.3535534143447876,
                0.8535534739494324
            ],
            "translation" : [
                0.9000000357627869,
                12,
                0
            ]
        }
    ],
    "materials" : [
        {
            "doubleSided" : true,
            "extensions" : {
                "KHR_materials_clearcoat" : {
                    "clearcoatFactor" : 0.5,
                    "clearcoatRoughnessFactor" : 0.029999999329447746
                }
            },
            "name" : "Plastic",
            "pbrMetallicRoughness" : {
                "metallicFactor" : 0,
                "roughnessFactor" : 0.6000000238418579
            }
        },
        {
            "doubleSided" : true,
            "name" : "Metal",
            "pbrMetallicRoughness" : {
                "baseColorFactor" : [
                    0.6563922166824341,
                    0.6563922166824341,
                    0.6563922166824341,
                    1
                ],
                "metallicFactor" : 0,
                "roughnessFactor" : 0.10000000149011612
            }
        }
    ],
    "meshes" : [
        {
            "name" : "Cube",
            "primitives" : [
                {
                    "attributes" : {
                        "POSITION" : 0,
                        "NORMAL" : 1,
                        "TEXCOORD_0" : 2
                    },
                    "indices" : 3,
                    "material" : 0
                },
                {
                    "attributes" : {
                        "POSITION" : 4,
                        "NORMAL" : 5,
                        "TEXCOORD_0" : 6
                    },
                    "indices" : 7,
                    "material" : 1
                }
            ]
        }
    ],
    "accessors" : [
        {
            "bufferView" : 0,
            "componentType" : 5126,
            "count" : 1034,
            "max" : [
                1.8000000715255737,
                1.700000524520874,
                1.100000023841858
            ],
            "min" : [
                -1.8000000715255737,
                -3.700000047683716,
                -1.100000023841858
            ],
            "type" : "VEC3"
        },
        {
            "bufferView" : 1,
            "componentType" : 5126,
            "count" : 1034,
            "type" : "VEC3"
        },
        {
            "bufferView" : 2,
            "componentType" : 5126,
            "count" : 1034,
            "type" : "VEC2"
        },
        {
            "bufferView" : 3,
            "componentType" : 5123,
            "count" : 3468,
            "type" : "SCALAR"
        },
        {
            "bufferView" : 4,
            "componentType" : 5126,
            "count" : 720,
            "max" : [
                1.100000023841858,
                3.700000047683716,
                0.20000000298023224
            ],
            "min" : [
                -1.100000023841858,
                1.7000000476837158,
                -0.20000000298023224
            ],
            "type" : "VEC3"
        },
        {
            "bufferView" : 5,
            "componentType" : 5126,
            "count" : 720,
            "type" : "VEC3"
        },
        {
            "bufferView" : 6,
            "componentType" : 5126,
            "count" : 720,
            "type" : "VEC2"
        },
        {
            "bufferView" : 7,
            "componentType" : 5123,
            "count" : 3264,
            "type" : "SCALAR"
        }
    ],
    "bufferViews" : [
        {
            "buffer" : 0,
            "byteLength" : 12408,
            "byteOffset" : 0
        },
        {
            "buffer" : 0,
            "byteLength" : 12408,
            "byteOffset" : 12408
        },
        {
            "buffer" : 0,
            "byteLength" : 8272,
            "byteOffset" : 24816
        },
        {
            "buffer" : 0,
            "byteLength" : 6936,
            "byteOffset" : 33088
        },
        {
            "buffer" : 0,
            "byteLength" : 8640,
            "byteOffset" : 40024
        },
        {
            "buffer" : 0,
            "byteLength" : 8640,
            "byteOffset" : 48664
        },
        {
            "buffer" : 0,
            "byteLength" : 5760,
            "byteOffset" : 57304
        },
        {
            "buffer" : 0,
            "byteLength" : 6528,
            "byteOffset" : 63064
        }
    ],
    "buffers" : [
        {
            "byteLength" : 69592,
            "uri" : "data:application/octet-stream;base64,"
        }
    ]
}
